<svg width="26" height="26" viewBox="0 0 26 26" fill="none" xmlns="http://www.w3.org/2000/svg">
<path d="M8.7759 0.710966C5.61825 1.79139 2.92764 4.1544 1.42898 7.14475C0.90619 8.17638 0.529783 9.27075 0.299756 10.4069C-0.271826 13.223 0.125493 16.2273 1.42201 18.7925C2.26544 20.4654 3.47831 21.9571 4.94212 23.1212C6.32925 24.2225 7.93943 25.045 9.65418 25.4981C11.815 26.0766 14.1153 26.0627 16.2901 25.5678C18.2558 25.1147 20.1169 24.1737 21.6016 22.8075C23.17 21.3646 24.2922 19.4686 24.8847 17.4262C25.533 15.2027 25.6166 12.8257 25.2124 10.5394C21.1486 10.5394 17.0778 10.5394 13.014 10.5394C13.014 12.2262 13.014 13.9131 13.014 15.6C15.37 15.6 17.726 15.6 20.0821 15.6C19.8102 17.2171 18.8483 18.6949 17.489 19.608C16.6317 20.1866 15.6488 20.556 14.6311 20.7372C13.6134 20.9115 12.5539 20.9324 11.5362 20.7303C10.4976 20.5212 9.51477 20.089 8.65043 19.4825C7.27027 18.5136 6.21772 17.0986 5.68099 15.5024C5.13032 13.8783 5.12335 12.0729 5.68099 10.4557C6.07134 9.31257 6.71262 8.26003 7.56303 7.39568C8.6086 6.32223 9.96785 5.55547 11.4386 5.2418C12.6933 4.97692 14.0177 5.02571 15.2445 5.39515C16.2901 5.70882 17.252 6.28737 18.0397 7.04019C18.8343 6.24555 19.629 5.45091 20.4236 4.65627C20.8418 4.23107 21.281 3.81981 21.6853 3.38067C20.4794 2.26539 19.0574 1.36619 17.5099 0.794612C14.7217 -0.237024 11.585 -0.257935 8.7759 0.710966Z" fill="white"/>
<path d="M8.77587 0.710979C11.578 -0.257922 14.7217 -0.23701 17.5099 0.787655C19.0574 1.35924 20.4724 2.25146 21.6853 3.37371C21.281 3.81286 20.8418 4.22412 20.4236 4.64932C19.629 5.44395 18.8343 6.23859 18.0397 7.03323C17.252 6.28042 16.2901 5.70883 15.2445 5.38819C14.0177 5.01875 12.6933 4.96299 11.4386 5.23484C9.9748 5.54851 8.61555 6.31527 7.563 7.38873C6.7126 8.2461 6.07131 9.30562 5.68097 10.4488C4.26595 9.34744 2.85094 8.25307 1.42896 7.15173C2.92761 4.15441 5.61823 1.79141 8.77587 0.710979Z" fill="#EA4335"/>
<path d="M0.306712 10.4C0.536739 9.27079 0.913146 8.16945 1.43593 7.13782C2.85095 8.23916 4.26596 9.33353 5.68794 10.4349C5.1303 12.059 5.1303 13.8644 5.68794 15.4815C4.27293 16.5829 2.85792 17.6842 1.4429 18.7786C0.132449 16.2204 -0.26487 13.2161 0.306712 10.4Z" fill="#FBBC05"/>
<path d="M13.0139 10.5324C17.0777 10.5324 21.1485 10.5324 25.2123 10.5324C25.6166 12.8118 25.526 15.1887 24.8847 17.4193C24.2922 19.4616 23.17 21.3576 21.6016 22.8005C20.2284 21.734 18.8552 20.6675 17.482 19.601C18.8413 18.6879 19.8032 17.2102 20.0751 15.593C17.719 15.593 15.363 15.593 13.007 15.593C13.0139 13.9061 13.0139 12.2193 13.0139 10.5324Z" fill="#4285F4"/>
<path d="M1.42896 18.7855C2.84397 17.6911 4.25898 16.5898 5.674 15.4885C6.2177 17.0847 7.26327 18.4997 8.64343 19.4686C9.50778 20.0751 10.4976 20.5072 11.5292 20.7163C12.5469 20.9255 13.5995 20.8976 14.6241 20.7233C15.6418 20.5421 16.6247 20.1726 17.482 19.5941C18.8552 20.6606 20.2284 21.7271 21.6016 22.7936C20.1169 24.1667 18.2558 25.1008 16.2901 25.5539C14.1153 26.0488 11.815 26.0627 9.65416 25.4842C7.93941 25.0311 6.32922 24.2155 4.94209 23.1072C3.48526 21.9501 2.27239 20.4584 1.42896 18.7855Z" fill="#34A853"/>
</svg>
