<svg width="23" height="27" viewBox="0 0 23 27" fill="none" xmlns="http://www.w3.org/2000/svg">
<path fill-rule="evenodd" clip-rule="evenodd" d="M14.0004 25.7427C8.22922 26.9991 2.51176 23.326 1.25519 17.555C-0.00125802 11.7839 3.67171 6.06631 9.44291 4.80986C9.78399 4.73548 10.1206 4.95192 10.1948 5.29301C10.2691 5.63409 10.0528 5.97062 9.71175 6.045C4.62165 7.15321 1.3821 12.1959 2.49032 17.2861C3.59854 22.3763 8.6412 25.6159 13.7316 24.5074C18.8218 23.3992 22.0612 18.3565 20.9529 13.2664C20.8786 12.9253 21.0949 12.5887 21.436 12.5143C21.7772 12.4402 22.1138 12.6564 22.1881 12.9975C23.4446 18.7686 19.7713 24.4861 14.0004 25.7427Z" fill="#2D46B9"/>
<path d="M14.0004 25.7427C8.22922 26.9991 2.51176 23.326 1.25519 17.555C-0.00125806 11.7839 3.67171 6.06631 9.44291 4.80986C9.78399 4.73548 10.1206 4.95192 10.1948 5.29301C10.2691 5.63409 10.0528 5.97062 9.71175 6.045C4.62165 7.15321 1.3821 12.1959 2.49032 17.2861C3.59854 22.3763 8.6412 25.6159 13.7316 24.5074C18.8218 23.3992 22.0612 18.3565 20.9529 13.2664C20.8786 12.9253 21.0949 12.5887 21.436 12.5143C21.7772 12.4402 22.1138 12.6564 22.1881 12.9975C23.4446 18.7686 19.7713 24.4861 14.0004 25.7427" stroke="#2D46B9"/>
<path fill-rule="evenodd" clip-rule="evenodd" d="M15.0319 16.1837C14.509 16.1837 14.0809 15.797 14.0809 15.3242V0.926491C14.0809 0.4538 14.509 0.0670166 15.0319 0.0670166C15.555 0.0670166 15.9831 0.4538 15.9831 0.926491V15.3242C15.9831 15.797 15.555 16.1837 15.0319 16.1837Z" fill="#2D46B9"/>
<path fill-rule="evenodd" clip-rule="evenodd" d="M19.7984 5.47448C19.4413 5.85657 18.8363 5.87694 18.4542 5.51964L14.3815 1.71158C13.9994 1.35428 13.979 0.749447 14.3363 0.367354C14.6935 -0.0147384 15.2984 -0.0351096 15.6804 0.322189L19.7533 4.13025C20.1354 4.48755 20.1557 5.09239 19.7984 5.47448Z" fill="#2D46B9"/>
<path fill-rule="evenodd" clip-rule="evenodd" d="M20.0087 4.53501C20.0087 4.53488 20.0087 4.53474 20.0087 4.53461C20.0087 4.53474 20.0087 4.53488 20.0087 4.53501ZM20.0086 4.53421C19.9608 4.38451 19.8756 4.24472 19.7532 4.13027L15.8338 0.465611C15.8335 0.465209 15.8333 0.464941 15.833 0.464539L19.7536 4.13027C19.8759 4.24472 19.961 4.38451 20.0086 4.53421Z" fill="#E4E4DF"/>
<path fill-rule="evenodd" clip-rule="evenodd" d="M14.0812 1.63709V1.03895C14.0836 1.13706 14.1007 1.23476 14.1329 1.32817C14.13 1.33688 14.1271 1.34546 14.1246 1.35417L14.1239 1.35618C14.1159 1.38245 14.1091 1.40898 14.1033 1.43565L14.0991 1.45589C14.095 1.4776 14.0918 1.49945 14.0891 1.52129L14.0855 1.55466C14.0839 1.57329 14.0831 1.59206 14.0825 1.61095L14.0812 1.63709ZM15.8338 0.465612L15.6803 0.32221C15.6648 0.307602 15.6488 0.293798 15.6326 0.280396C15.6489 0.293664 15.665 0.307602 15.6807 0.32221L15.833 0.46454C15.8332 0.464942 15.8335 0.46521 15.8338 0.465612Z" fill="#5C4488"/>
<path fill-rule="evenodd" clip-rule="evenodd" d="M20.0021 5.1342C19.9534 4.99174 19.8707 4.85879 19.7536 4.74943L15.6807 0.941233C15.6211 0.885481 15.5555 0.840182 15.4871 0.802656L15.4822 0.800109C15.4581 0.787243 15.4337 0.775316 15.4089 0.764594L15.3932 0.758027C15.3715 0.749182 15.3498 0.74114 15.3277 0.734037L15.2996 0.725192C15.2809 0.719697 15.2619 0.714738 15.2429 0.710584C15.2303 0.707635 15.2175 0.704955 15.2047 0.702542C15.1877 0.69946 15.1708 0.696914 15.1537 0.694769C15.1394 0.692893 15.1251 0.691285 15.1105 0.690078C15.0934 0.688604 15.0763 0.687934 15.0593 0.687398L15.0323 0.686058L15.0169 0.686862C14.9983 0.68713 14.9801 0.688336 14.9616 0.689676C14.9491 0.690615 14.9368 0.691285 14.9244 0.692625C14.9026 0.695037 14.8807 0.69879 14.859 0.702676L14.8358 0.706831C14.6505 0.745295 14.4749 0.838439 14.3365 0.986398C14.2419 1.08758 14.1747 1.20458 14.1329 1.32815C14.1007 1.23474 14.0836 1.13704 14.0812 1.03893V1.01803L14.0825 0.991759C14.0831 0.972996 14.0839 0.954233 14.0855 0.93547L14.0891 0.902233C14.0918 0.880254 14.095 0.858542 14.0991 0.836831L14.1033 0.816594C14.1091 0.789924 14.1159 0.763388 14.1239 0.73712L14.1246 0.734975C14.1655 0.601759 14.2353 0.475511 14.3365 0.367357C14.4749 0.219398 14.6505 0.126254 14.8358 0.0877898L14.859 0.0836352C14.8807 0.0797486 14.9026 0.075996 14.9244 0.0735836C14.9368 0.0722434 14.9491 0.0715733 14.9616 0.0706352C14.9801 0.069295 14.9983 0.0680888 15.0169 0.0676867L15.0323 0.0670166L15.0593 0.0683568C15.0763 0.0688929 15.0934 0.069563 15.1105 0.0709032C15.1251 0.0722434 15.1394 0.0738517 15.1537 0.0757279C15.1708 0.0778723 15.1877 0.0804187 15.2047 0.0835011C15.2175 0.0859135 15.2303 0.0885939 15.2429 0.0915424C15.2619 0.095697 15.2809 0.100656 15.2996 0.106151L15.3277 0.114862C15.3498 0.122099 15.3715 0.13014 15.3932 0.138986L15.4089 0.145553C15.4337 0.156274 15.4581 0.168068 15.4822 0.181068L15.4871 0.183615C15.5376 0.211223 15.5865 0.243254 15.6326 0.280377C15.6488 0.293779 15.6648 0.307584 15.6803 0.322192L15.8338 0.465594L19.7532 4.13025C19.8756 4.24471 19.9608 4.38449 20.0085 4.53419C20.0085 4.53433 20.0085 4.53446 20.0086 4.53459C20.0086 4.53473 20.0086 4.53486 20.0086 4.535C20.0702 4.72919 20.0681 4.94027 20.0021 5.1342Z" fill="#2D46B9"/>
<path fill-rule="evenodd" clip-rule="evenodd" d="M15.9831 15.2762C15.9831 17.4329 14.2348 19.1812 12.0782 19.1812C9.92152 19.1812 8.17322 17.4329 8.17322 15.2762C8.17322 13.1196 9.92152 11.3713 12.0782 11.3713C14.2348 11.3713 15.9831 13.1196 15.9831 15.2762Z" fill="#2D46B9"/>
<path fill-rule="evenodd" clip-rule="evenodd" d="M15.0581 15.2762C15.0581 16.9221 13.7239 18.2563 12.0781 18.2563C10.4322 18.2563 9.09802 16.9221 9.09802 15.2762C9.09802 13.6304 10.4322 12.2963 12.0781 12.2963C13.7239 12.2963 15.0581 13.6304 15.0581 15.2762Z" fill="#FFFFFE"/>
<path fill-rule="evenodd" clip-rule="evenodd" d="M12.0484 19.1812C9.89161 19.1812 8.14331 17.4329 8.14331 15.2762C8.14331 13.1196 9.89161 11.3713 12.0484 11.3713C9.90541 11.3875 8.1732 13.1296 8.1732 15.2762C8.1732 17.4228 9.90541 19.165 12.0484 19.1811V19.1812Z" fill="#D6D5D0"/>
<path fill-rule="evenodd" clip-rule="evenodd" d="M12.0484 19.181C9.90543 19.165 8.17322 17.4228 8.17322 15.2762C8.17322 13.1296 9.90543 11.3875 12.0484 11.3714V12.2964C10.4162 12.3124 9.09809 13.6404 9.09809 15.2762C9.09809 16.9121 10.4162 18.2401 12.0484 18.2562V19.1812" fill="#2D46B9"/>
</svg>
