<svg width="16" height="18" viewBox="0 0 16 18" fill="none" xmlns="http://www.w3.org/2000/svg">
<path d="M14.6775 10.2727C14.2503 10.2727 13.905 10.6189 13.905 11.0454C13.905 12.3235 12.8652 13.3636 11.5875 13.3636H5.4075V11.0454C5.4075 10.7487 5.23679 10.4775 4.97028 10.3492C4.70068 10.2209 4.38472 10.2565 4.1522 10.4419L0.289679 13.5328C0.106584 13.6797 0 13.9014 0 14.1363C0 14.3713 0.106617 14.593 0.289679 14.7398L4.1522 17.8307C4.29201 17.942 4.46275 18 4.63499 18C4.74855 18 4.86366 17.9745 4.97025 17.9235C5.23676 17.7952 5.40747 17.524 5.40747 17.2272V14.9091H11.5875C13.7173 14.9091 15.45 13.1758 15.45 11.0454C15.45 10.6189 15.1047 10.2727 14.6775 10.2727Z" fill="#8E8E93"/>
<path d="M0.77251 7.72727C1.19971 7.72727 1.54502 7.38108 1.54502 6.95451C1.54502 5.67637 2.5848 4.63624 3.86252 4.63624H10.0425V6.95451C10.0425 7.25125 10.2132 7.52247 10.4798 7.65077C10.5871 7.70177 10.7015 7.72727 10.815 7.72727C10.9873 7.72727 11.158 7.66933 11.2978 7.55803L15.1603 4.467C15.3434 4.32017 15.45 4.09839 15.45 3.86347C15.45 3.62855 15.3434 3.40678 15.1603 3.25995L11.2978 0.168918C11.0661 -0.016529 10.7463 -0.0520909 10.4798 0.0761778C10.2132 0.204446 10.0425 0.475693 10.0425 0.772441V3.09071H3.86252C1.73273 3.09071 0 4.82401 0 6.95451C0 7.38108 0.345311 7.72727 0.77251 7.72727Z" fill="#8E8E93"/>
</svg>
