<svg width="23" height="16" viewBox="0 0 23 16" fill="none" xmlns="http://www.w3.org/2000/svg">
<path d="M21.9451 11.2788L18.4808 9.27583C17.7816 8.87153 16.904 9.37749 16.904 10.1875V11.3774H15.3394C13.9116 11.3774 12.6227 10.5856 11.9756 9.31095L9.9719 5.36354C9.04637 3.54016 7.2026 2.40747 5.16011 2.40747H0.812212C0.363645 2.40747 0 2.77164 0 3.22082C0 3.66999 0.363645 4.03421 0.812212 4.03421H5.16016C6.58801 4.03421 7.87688 4.82602 8.52394 6.10067L9.33861 7.70566C8.55133 9.25658 7.80236 11.3771 5.16016 11.3771C4.71159 11.3771 4.34795 11.7413 4.34795 12.1905C4.34795 12.6397 4.71159 13.0039 5.16016 13.0039C7.20265 13.0039 9.04641 11.8712 9.97194 10.0478L10.2497 9.50051L10.5276 10.0481C11.4532 11.8715 13.2969 13.0041 15.3394 13.0041H16.904V14.1935C16.904 15.0024 17.7805 15.5101 18.4808 15.1052L21.9451 13.1022C22.6444 12.6979 22.6456 11.6838 21.9451 11.2788Z" fill="#8E8E93"/>
<path d="M2.3849 11.235H0.825013C0.369397 11.235 0 11.5943 0 12.0375C0 12.4807 0.369397 12.84 0.825058 12.84H2.38494C2.8406 12.84 3.21 12.4807 3.21 12.0375C3.21 11.5943 2.8406 11.235 2.3849 11.235Z" fill="#8E8E93"/>
<path d="M18.4439 6.27057L21.9403 4.16734C22.6461 3.7428 22.6472 2.67791 21.9403 2.25263L18.4439 0.149354C17.738 -0.275372 16.8525 0.256332 16.8525 1.10666V5.31327C16.8525 6.1624 17.737 6.69585 18.4439 6.27057Z" fill="#8E8E93"/>
<path d="M16.0501 3.99877V2.40747C14.0644 2.40747 12.4145 2.97025 11.2351 4.71431C11.2998 4.83675 11.172 4.5855 12.0998 6.41997C13.2447 4.15617 14.6054 3.99877 16.0501 3.99877Z" fill="#8E8E93"/>
</svg>
