<?xml version="1.0"?>
<svg xmlns="http://www.w3.org/2000/svg" viewBox="0 0 64 64" width="512" height="512"><g id="Idea-2" data-name="Idea"><path d="M17,24.969a4.984,4.984,0,0,0,8.905-3.92,4.965,4.965,0,0,0,0-8.1A4.991,4.991,0,0,0,17,9.019a4.987,4.987,0,0,0-8.9,3.932,4.965,4.965,0,0,0,0,8.1A4.985,4.985,0,0,0,17,24.969Zm1.1-13.722A3,3,0,0,1,24,12c0,.037-.008.071-.01.108a5.055,5.055,0,0,0-3.489.565l1,1.734a2.927,2.927,0,0,1,2.811-.1,2.983,2.983,0,0,1-.023,5.387,2.961,2.961,0,0,1-2.788-.106l-1,1.734a4.919,4.919,0,0,0,3.49.569c0,.035.009.069.009.1a3,3,0,0,1-6,0V12A2.7,2.7,0,0,1,18.1,11.247ZM10,22c0-.036.008-.07.009-.105A4.922,4.922,0,0,0,11,22a5.022,5.022,0,0,0,2.5-.673l-1-1.734a2.935,2.935,0,0,1-2.811.095A2.983,2.983,0,0,1,9.713,14.3a2.955,2.955,0,0,1,2.788.106l1-1.734a5.1,5.1,0,0,0-3.489-.565c0-.036-.01-.071-.01-.108a3,3,0,0,1,5.907-.729A2.634,2.634,0,0,1,16,12V22a3,3,0,0,1-6,0Z"/><path d="M34.293,24.293l-6,6a1,1,0,0,0,0,1.414l6,6,1.414-1.414L30.414,31l5.293-5.293Z"/><path d="M43.707,37.707l6-6a1,1,0,0,0,0-1.414l-6-6-1.414,1.414L47.586,31l-5.293,5.293Z"/><rect x="30.754" y="30" width="16.492" height="2" transform="translate(-0.537 61.312) rotate(-75.957)"/><path d="M57,16H31.946a15,15,0,0,0-28.8-4.8A15.5,15.5,0,0,0,8.1,29.392,4.936,4.936,0,0,1,10,33.311v.873a2.982,2.982,0,0,0,.054,5.649,7.007,7.007,0,0,0,6.04,6.1A5,5,0,0,0,21,50H35v6H32a3,3,0,0,0,0,6H46a3,3,0,0,0,0-6H43V50H57a5.006,5.006,0,0,0,5-5V21A5.006,5.006,0,0,0,57,16Zm3,5V42H23.315a6.955,6.955,0,0,0,.631-2.167A2.982,2.982,0,0,0,24,34.184v-.87a4.84,4.84,0,0,1,1.843-3.877A15.6,15.6,0,0,0,31.941,18H57A3,3,0,0,1,60,21ZM9.31,27.8A13.692,13.692,0,0,1,5,11.962a12.9,12.9,0,0,1,9.889-7.795A13.009,13.009,0,0,1,30,17a13.8,13.8,0,0,1-5.36,10.839A6.848,6.848,0,0,0,22,33.314V34H12v-.689A6.942,6.942,0,0,0,9.31,27.8ZM11,36H23a1,1,0,0,1,0,2H11a1,1,0,0,1,0-2Zm1.1,4h9.8a5,5,0,0,1-9.8,0ZM47,59a1,1,0,0,1-1,1H32a1,1,0,0,1,0-2H46A1,1,0,0,1,47,59Zm-6-3H37V50h4Zm16-8H21a2.994,2.994,0,0,1-2.848-2.1A6.979,6.979,0,0,0,21.89,44H60v1A3,3,0,0,1,57,48Z"/></g></svg>
